<?xml version="1.0" encoding="UTF-8"?>
<svg id="Camada_2" data-name="Camada 2" xmlns="http://www.w3.org/2000/svg" viewBox="0 0 150 150">
  <defs>
    <style>
      .cls-1 {
        fill: #f8fafc;
      }

      .cls-2 {
        fill: #1e293b;
      }
    </style>
  </defs>
  <g id="Camada_1-2" data-name="Camada 1">
    <g>
      <rect class="cls-2" x="3" y="3" width="144" height="144" rx="14.6" ry="14.6"/>
      <path d="m132.4,6c6.39,0,11.6,5.2,11.6,11.6v114.81c0,6.39-5.2,11.6-11.6,11.6H17.6c-6.39,0-11.6-5.2-11.6-11.6V17.6c0-6.39,5.2-11.6,11.6-11.6h114.81m0-6H17.6C7.88,0,0,7.88,0,17.6v114.81c0,9.72,7.88,17.6,17.6,17.6h114.81c9.72,0,17.6-7.88,17.6-17.6V17.6c0-9.72-7.88-17.6-17.6-17.6h0Z"/>
    </g>
    <g>
      <circle class="cls-2" cx="74.5" cy="75.5" r="35"/>
      <path class="cls-1" d="m74.5,50c14.06,0,25.5,11.44,25.5,25.5s-11.44,25.5-25.5,25.5-25.5-11.44-25.5-25.5,11.44-25.5,25.5-25.5m0-19c-24.58,0-44.5,19.92-44.5,44.5s19.92,44.5,44.5,44.5,44.5-19.92,44.5-44.5-19.92-44.5-44.5-44.5h0Z"/>
    </g>
  </g>
</svg>